<?xml version="1.0" encoding="utf-8"?>
<svg viewBox="0 0 500 500" xmlns="http://www.w3.org/2000/svg" xmlns:bx="https://boxy-svg.com">
  <g xmlns="http://www.w3.org/2000/svg" viewBox="0 0 500 500" transform="matrix(1, 0, 0, 1, 1.0044569969177815, 0.06051100045443292)" bx:workspace="master">
    <title>flexomate</title>
    <g class="cls-2" style="clip-path: url('#clip-0');" transform="matrix(19.314745, 0, 0, 19.260443, 1.552264, 20.626471)">
      <title>chat-icon</title>
      <path d="M13.08,20.49a8.75,8.75,0,0,1-4-1,.76.76,0,0,1-.32-1,.75.75,0,0,1,1-.32,7.33,7.33,0,0,0,4.68.69A7.25,7.25,0,1,0,6,10a7.31,7.31,0,0,0,.85,5.49.75.75,0,0,1-.25,1,.75.75,0,0,1-1-.25A8.73,8.73,0,0,1,11.47,3.14a8.75,8.75,0,0,1,3.21,17.21A9.61,9.61,0,0,1,13.08,20.49Z" style="stroke-miterlimit: 1; stroke-width: 0.716461px; fill: rgb(255, 255, 255);">
        <title>main-circle</title>
      </path>
      <path d="M 10.264 13.612 C 10.084 13.615 9.912 13.558 9.788 13.454 L 7.991 12.017 C 7.721 11.8 7.729 11.448 8.009 11.24 L 9.932 9.73 C 10.311 9.436 10.947 9.583 11.073 9.993 C 11.133 10.183 11.059 10.385 10.884 10.521 L 9.429 11.649 L 10.704 12.678 C 10.966 12.888 10.966 13.229 10.704 13.44 C 10.59 13.54 10.433 13.601 10.264 13.612 Z" style="stroke-miterlimit: 1; stroke-width: 0.716461px; fill: rgb(255, 255, 255);">
        <title>left-arrow</title>
      </path>
      <path d="M 15.834 13.417 C 15.656 13.418 15.485 13.365 15.359 13.271 C 15.097 13.077 15.097 12.762 15.359 12.568 L 16.661 11.606 L 15.215 10.565 C 14.835 10.284 15.008 9.805 15.528 9.702 C 15.77 9.655 16.027 9.705 16.203 9.835 L 18.089 11.228 C 18.352 11.423 18.352 11.737 18.089 11.931 L 16.293 13.258 C 16.174 13.354 16.01 13.411 15.834 13.417 Z" style="stroke-miterlimit: 1; stroke-width: 0.716461px; fill: rgb(255, 255, 255);">
        <title>right-arrow</title>
      </path>
    </g>
    <g transform="matrix(0.708636, 0, 0, 0.697379, 72.48613, 60.099072)" style="">
      <title>record-icon</title>
      <path d="M 257.239 505.702 C 348.357 505.702 324.514 468.695 246.597 468.695 C 168.681 468.695 98.073 409.874 62.329 318.665 C 58.144 307.989 48.175 303.8 40.066 309.305 C 31.953 314.81 33.026 347.394 37.209 358.068 C 77.882 461.847 165.864 505.702 257.239 505.702 Z" style="stroke-miterlimit: 2.3; stroke-width: 0px; fill: rgb(255, 255, 255);">
        <title>extra-curve</title>
      </path>
      <path opacity="1.000000" stroke-linecap="round" stroke-linejoin="round" d="M 316.504 263.4 C 349.202 263.4 381.899 263.4 414.598 263.4" style="stroke-width: 19.6582px; fill: none; stroke: rgb(255, 255, 255);">
        <title>right-line</title>
      </path>
      <path opacity="1.000000" stroke-linecap="round" stroke-linejoin="round" d="M 190.461 266.012 C 158.762 266.012 127.062 266.012 95.365 266.012" style="stroke-width: 19.6582px; stroke: rgb(255, 255, 255);" fill="none">
        <title>left-line</title>
      </path>
      <path d="M 99.464 309.13 L 99.464 221.976 C 99.464 211.013 90.84 202.124 80.203 202.124 L -4.355 202.124 C -14.992 202.124 -23.616 211.013 -23.616 221.976 L -23.616 309.13 C -23.616 320.093 -14.992 328.982 -4.355 328.982 L 80.203 328.982 C 90.842 328.982 99.464 320.093 99.464 309.13 Z" style="stroke-miterlimit: 2.3; stroke-width: 6.55274px; fill: rgb(255, 106, 0); stroke-linecap: square; stroke: rgb(255, 255, 255);">
        <title>left-square</title>
      </path>
      <path d="M 514.315 199.655 L 430.438 199.655 C 419.887 199.655 411.333 208.544 411.333 219.507 L 411.333 306.661 C 411.333 317.624 419.887 326.514 430.438 326.514 L 514.315 326.514 C 524.866 326.514 533.421 317.624 533.421 306.661 L 533.421 219.507 C 533.421 208.544 524.866 199.655 514.315 199.655 Z" style="stroke-miterlimit: 2.3; stroke-width: 6.55274px; fill: rgb(15, 173, 213); stroke-linecap: square; stroke: rgb(255, 255, 255);">
        <title>right-square</title>
      </path>
    </g>
    <path id="path17111" d="M 407.678 209.04 C 389.528 209.04 374.815 224.231 374.815 242.965 C 374.815 261.703 389.528 276.891 407.678 276.891 C 425.824 276.891 440.54 261.703 440.54 242.965 C 440.54 224.231 425.824 209.04 407.678 209.04 Z M 407.678 216.91 C 421.614 216.91 432.919 228.577 432.919 242.965 C 432.919 257.355 421.614 269.024 407.678 269.024 C 393.735 269.024 382.435 257.355 382.435 242.965 C 382.435 228.577 393.735 216.91 407.678 216.91 Z M 399.462 226.028 L 399.462 259.903 L 424.106 242.965 L 399.462 226.028 Z" style="fill: rgb(255, 241, 241);">
      <title>play-icon</title>
    </path>
    <path d="M 99.468 211.495 C 80.626 211.495 65.298 226.744 65.298 245.491 C 65.298 264.235 80.626 279.481 99.468 279.481 C 118.305 279.481 133.634 264.235 133.634 245.491 C 133.634 226.744 118.305 211.495 99.468 211.495 Z M 111.653 217.407 C 120.454 221.197 127.13 228.965 129.386 238.42 L 111.653 248.606 L 111.653 217.407 Z M 99.468 214.895 C 102.514 214.895 105.458 215.342 108.237 216.166 L 108.237 236.524 L 81.122 220.951 C 86.244 217.15 92.597 214.895 99.468 214.895 Z M 108.237 240.452 L 108.237 250.57 L 99.468 255.606 L 90.659 250.548 L 90.659 240.471 L 99.468 235.411 L 108.237 240.452 Z M 68.713 245.491 C 68.713 236.753 72.416 228.859 78.341 223.276 L 96.048 233.448 L 68.922 249.03 C 68.789 247.87 68.713 246.685 68.713 245.491 Z M 87.241 273.559 C 78.473 269.766 71.817 262.02 69.553 252.595 L 87.241 242.434 L 87.241 273.559 Z M 99.468 276.083 C 96.406 276.083 93.451 275.634 90.659 274.804 L 90.659 254.476 L 98.618 259.047 C 98.622 259.048 98.626 259.048 98.628 259.052 L 117.779 270.052 C 112.66 273.838 106.321 276.083 99.468 276.083 Z M 120.563 267.727 L 102.885 257.57 L 130.013 241.984 C 130.146 243.135 130.215 244.306 130.215 245.491 C 130.215 254.241 126.502 262.144 120.563 267.727 Z" style="stroke-width: 3px; stroke: rgb(255, 255, 255); fill: rgb(255, 255, 255);">
      <title>camera-lens</title>
    </path>
    <g transform="matrix(2.607872, 0, 0, 2.838481, -399.076385, -468.901062)" style="">
      <title>music-circle</title>
      <ellipse style="stroke-miterlimit: 1; fill: rgb(30, 215, 95); stroke-width: 5.07188px; stroke: rgb(255, 255, 255);" cx="250.809" cy="251.581" rx="26.27" ry="24.137">
        <title>main-circle</title>
      </ellipse>
      <g style="" transform="matrix(0.876442, 0, 0, 0.845889, 30.983143, 38.473137)">
        <title>music-bars</title>
        <path d="M 232.256 246.491 L 232.256 256.133" stroke-width="1.7" stroke-linecap="round" style="paint-order: fill; fill: rgb(255, 255, 255);" stroke="#1C1C1C"/>
        <path d="M 257.965 246.962 L 257.965 256.851" stroke-width="1.7" stroke-linecap="round" style="fill: rgb(255, 255, 255);" stroke="#1C1C1C"/>
        <path d="M 238.683 240.14 L 238.683 262.485" stroke-width="1.7" stroke-linecap="round" style="fill: rgb(255, 255, 255);" stroke="#1C1C1C"/>
        <path d="M 251.538 240.14 L 251.538 262.485" stroke-width="1.7" stroke-linecap="round" style="fill: rgb(255, 255, 255);" stroke="#1C1C1C"/>
        <path d="M 264.392 240.14 L 264.392 262.955" stroke-width="1.7" stroke-linecap="round" style="fill: rgb(255, 255, 255);" stroke="#1C1C1C"/>
        <path d="M 245.11 246.484 L 245.11 257.08" stroke-width="1.7" stroke-linecap="round" style="fill: rgb(255, 255, 255);" stroke="#1C1C1C"/>
        <path d="M 269.259 246.606 L 269.259 256.894" stroke-width="1.7" stroke-linecap="round" style="fill: rgb(255, 255, 255);" stroke="#1C1C1C"/>
      </g>
    </g>
  </g>
</svg>